<svg width="46" height="46" viewBox="0 0 46 46" fill="none" xmlns="http://www.w3.org/2000/svg">
<path d="M23 4.3125C19.304 4.3125 15.6909 5.4085 12.6178 7.46191C9.54465 9.51532 7.14942 12.4339 5.73501 15.8486C4.3206 19.2633 3.95052 23.0207 4.67158 26.6458C5.39264 30.2708 7.17246 33.6006 9.78595 36.2141C12.3994 38.8276 15.7292 40.6074 19.3543 41.3284C22.9793 42.0495 26.7367 41.6794 30.1514 40.265C33.5661 38.8506 36.4847 36.4554 38.5381 33.3822C40.5915 30.3091 41.6875 26.696 41.6875 23C41.6823 18.0454 39.7117 13.2952 36.2083 9.79172C32.7048 6.28827 27.9546 4.31773 23 4.3125ZM23 38.8125C19.8726 38.8125 16.8154 37.8851 14.2151 36.1476C11.6147 34.4101 9.58797 31.9405 8.39116 29.0512C7.19435 26.1618 6.88121 22.9825 7.49134 19.9151C8.10147 16.8478 9.60746 14.0303 11.8189 11.8189C14.0303 9.60746 16.8478 8.10146 19.9151 7.49133C22.9825 6.8812 26.1618 7.19434 29.0512 8.39115C31.9405 9.58797 34.4101 11.6147 36.1476 14.215C37.8851 16.8154 38.8125 19.8726 38.8125 23C38.8078 27.1923 37.1403 31.2115 34.1759 34.1759C31.2115 37.1403 27.1923 38.8077 23 38.8125ZM31.2045 21.983C31.3382 22.1165 31.4442 22.275 31.5166 22.4495C31.5889 22.624 31.6261 22.8111 31.6261 23C31.6261 23.1889 31.5889 23.376 31.5166 23.5505C31.4442 23.725 31.3382 23.8835 31.2045 24.017L25.4545 29.767C25.1848 30.0368 24.819 30.1883 24.4375 30.1883C24.056 30.1883 23.6902 30.0368 23.4205 29.767C23.1507 29.4973 22.9992 29.1315 22.9992 28.75C22.9992 28.3685 23.1507 28.0027 23.4205 27.733L26.7177 24.4375H15.8125C15.4313 24.4375 15.0656 24.2861 14.796 24.0165C14.5265 23.7469 14.375 23.3812 14.375 23C14.375 22.6188 14.5265 22.2531 14.796 21.9835C15.0656 21.714 15.4313 21.5625 15.8125 21.5625H26.7177L23.4205 18.267C23.1507 17.9973 22.9992 17.6315 22.9992 17.25C22.9992 16.8685 23.1507 16.5027 23.4205 16.233C23.6902 15.9632 24.056 15.8117 24.4375 15.8117C24.819 15.8117 25.1848 15.9632 25.4545 16.233L31.2045 21.983Z" fill="white"/>
</svg>
