<?xml version="1.0" encoding="utf-8"?>
<svg width="39" height="39" viewBox="0 0 39 39" fill="none" xmlns="http://www.w3.org/2000/svg">
  <path d="M26.4886 15.4787C26.599 15.589 26.6866 15.7199 26.7464 15.8641C26.8061 16.0083 26.8369 16.1628 26.8369 16.3188C26.8369 16.4749 26.8061 16.6294 26.7464 16.7736C26.6866 16.9177 26.599 17.0487 26.4886 17.159L18.1761 25.4715C18.0658 25.5819 17.9348 25.6695 17.7907 25.7293C17.6465 25.789 17.492 25.8198 17.3359 25.8198C17.1799 25.8198 17.0254 25.789 16.8812 25.7293C16.737 25.6695 16.6061 25.5819 16.4958 25.4715L12.9333 21.909C12.7105 21.6862 12.5853 21.384 12.5853 21.0688C12.5853 20.7537 12.7105 20.4515 12.9333 20.2287C13.1561 20.0059 13.4583 19.8807 13.7734 19.8807C14.0886 19.8807 14.3908 20.0059 14.6136 20.2287L17.3359 22.9525L24.8083 15.4787C24.9186 15.3683 25.0495 15.2807 25.1937 15.2209C25.3379 15.1612 25.4924 15.1304 25.6484 15.1304C25.8045 15.1304 25.959 15.1612 26.1032 15.2209C26.2473 15.2807 26.3783 15.3683 26.4886 15.4787ZM33.9609 8.00635V31.7563C33.9609 32.3862 33.7107 32.9903 33.2653 33.4357C32.8199 33.8811 32.2158 34.1313 31.5859 34.1313H7.83594C7.20605 34.1313 6.60196 33.8811 6.15656 33.4357C5.71116 32.9903 5.46094 32.3862 5.46094 31.7563V8.00635C5.46094 7.37646 5.71116 6.77237 6.15656 6.32697C6.60196 5.88157 7.20605 5.63135 7.83594 5.63135H31.5859C32.2158 5.63135 32.8199 5.88157 33.2653 6.32697C33.7107 6.77237 33.9609 7.37646 33.9609 8.00635ZM31.5859 31.7563V8.00635H7.83594V31.7563H31.5859Z" fill="#0097A7"/>
  <ellipse style="fill: rgb(255, 255, 255); stroke: rgb(255, 255, 255);" cx="20.328" cy="20.037" rx="9.252" ry="8.642"/>
</svg>