<svg width="112" height="128" viewBox="0 0 112 128" fill="none" xmlns="http://www.w3.org/2000/svg">
<path d="M-90.9112 83.1719C-86.4456 81.7255 -71.9019 75.9035 -63.3852 72.9277C-55.7999 70.2773 -42.6483 74.0895 -31.3676 77.8336C-25.1558 79.8954 -19.7325 83.2185 -12.0895 87.7648C-3.72309 92.7413 5.71744 101.387 15.6158 111.359C22.3555 118.148 24.9756 124.111 27.0721 125.216C33.3448 128.524 38.778 123.799 43.4602 123.379C47.8888 122.981 59.089 116.451 68.9233 108.745C70.8504 107.235 72.7008 105.458 72.9636 104.512C74.6042 98.6095 55.8922 109.313 50.707 109.31C46.4524 109.308 41.9386 104.361 37.502 99.0047C33.9404 94.7048 22.7553 90.9142 13.8161 89.8675C8.77557 89.2772 0.2079 85.8495 -7.51043 81.4983C-11.8201 79.0687 -13.1956 73.4983 -13.5639 71.4208C-14.6938 65.0469 -0.798121 70.6011 20.5256 76.2089C32.6865 79.4071 39.7325 84.1542 42.8686 83.9934C52.1284 83.5185 61.1244 72.6218 67.6528 70.3742C74.8899 67.8826 83.3728 67.0414 105.844 53.6251C110.323 50.9515 110.713 50.004 110.838 49.1508C110.962 48.2975 110.667 47.347 109.84 46.3517C105.651 41.313 97.7064 40.1575 90.1084 40.569C80.3998 41.0948 71.5114 52.168 67.382 56.2752C62.1078 61.5212 53.9301 65.8301 48.9594 66.6342C47.1013 66.9347 44.7208 66.9503 41.9691 66.6638C40.6846 66.5301 39.6284 66.4858 40.8131 64.7289C50.1515 50.8808 60.2249 41.5457 66.8427 39.6325C76.7624 36.7647 86.7577 34.6628 95.6085 27.6294C100.661 23.6147 106.15 19.0521 108.797 15.5683C111.126 12.5018 100.915 9.05492 94.4722 6.80241C86.6314 4.0612 80.6785 4.36211 76.3771 6.84038C61.1348 15.6221 57.1206 23.9186 52.3581 28.0538C45.9517 33.6164 35.4719 37.5917 24.8322 41.5941C7.00565 48.3001 2.51131 53.3575 -1.89299 54.7573C-2.77231 55.0368 -3.84394 54.1399 -4.24203 53.0497C-4.64011 51.9594 -4.40764 50.2752 -3.70151 49.0168C-1.02619 44.2491 6.38494 40.349 11.7751 33.49C14.8489 29.5785 17.4713 24.0867 20.3581 20.4251C23.1924 16.8301 26.0538 13.3392 28.8808 10.1115C30.438 8.33347 31.8643 5.60921 32.0573 4.32782C33.5013 -5.25932 15.9949 13.4616 7.91775 25.7838C4.13641 31.5526 1.75612 36.8528 -1.46653 40.7498C-5.13642 45.1875 -9.84684 44.608 -18.3952 45.8728C-24.9499 46.8427 -32.4131 49.2184 -45.2201 51.786C-58.2643 54.4012 -65.4702 58.1086 -71.4785 60.9596C-75.4569 61.6817 -78.6003 61.0769 -80.6122 60.1062C-81.6257 59.6173 -82.6241 59.1356 -83.6527 58.6393" stroke="#99D5DC" stroke-width="2" stroke-linecap="round"/>
</svg>
