<svg width="196" height="346" viewBox="0 0 196 346" fill="none" xmlns="http://www.w3.org/2000/svg">
<path d="M194.341 344.947C190.335 339.231 182.287 322.013 174.507 309.293C169.86 301.697 167.297 293.172 156.969 269.063C145.187 241.559 133.931 211.45 128.448 198.204C121.894 182.371 109.753 170.554 102.836 165.641C96.3754 161.052 86.1619 161.885 74.0816 159.312C53.045 154.831 39.5329 141.195 29.1622 132.275C24.023 127.855 13.6796 113.632 1.27974 100.369C-0.369301 98.605 11.2445 108.33 21.2698 114.055C59.3017 135.774 83.1915 154.39 90.9803 158.698C95.6456 161.279 99.339 164.752 101.929 165.339C110.436 167.267 104.537 141.817 99.3822 118.511C97.1982 108.638 93.6053 100.904 91.317 90.8704C88.0378 76.4911 80.9637 52.0992 76.0762 26.2028C73.1273 10.5777 69.9972 4.17483 70.5671 2.1456C71.5243 -1.26273 74.591 12.7408 82.872 30.4771C99.9175 66.9854 116.626 89.9033 117.196 95.067C119.113 112.437 118.94 130.764 108.604 152.887C106.097 158.254 111.998 127.448 116.894 113.011C124.014 92.0142 129.821 67.6595 135.321 52.5396C136.164 50.2231 136.763 47.3844 137.912 45.3466C139.06 43.3087 140.77 42.1689 142.79 43.2915C157.553 51.4927 156.347 81.1819 155.208 98.4433C153.879 118.561 125.883 133.044 119.528 146.86C115.563 155.48 112.602 161.867 110.599 165.028C100.491 180.974 63.1583 182.574 50.4648 193.791C47.8387 196.112 46.9935 198.117 46.6913 200.138C46.3891 202.158 46.959 204.438 48.1074 205.897C49.2559 207.357 50.9656 207.927 52.9862 207.935C57.3229 207.954 61.9148 205.647 65.9387 203.065C74.2048 197.761 74.591 183.231 80.0397 174.578C82.6216 172.834 86.611 171.694 90.3758 170.822C94.1407 169.95 97.5602 169.38 106.264 168.793" stroke="#99D5DC" stroke-width="2" stroke-linecap="round"/>
</svg>
