<svg width="166" height="235" viewBox="0 0 166 235" fill="none" xmlns="http://www.w3.org/2000/svg">
<path d="M1.57651 1.84473C7.80531 8.07353 23.9356 22.428 46.3351 43.462C51.7107 48.5099 53.9899 52.8859 62.9093 66.931C71.8288 80.976 86.9232 104.95 97.3628 124.625C115.068 157.992 119.507 178.04 121.074 186.758C124.246 204.404 125.345 217.902 124.679 230.911C124.466 235.089 122.682 234.153 121.995 232.808C118.067 225.105 116.843 202 113.473 184.632C110.919 171.473 110.547 152.654 109.874 143.553C109.16 133.891 129.731 177.004 139.673 190.168C141.782 192.961 143.722 196 145.734 198.913C146.642 200.228 148.189 200.494 149.319 199.612C152.236 197.337 152.252 192.449 152.03 188.426C151.099 171.567 136.135 150.771 131.641 145.134C127.662 140.142 119.547 143.103 115.948 142.881C108.751 142.437 132.045 140.869 141.449 136.618C152.009 131.844 159.409 126.986 163.001 121.598C163.902 120.246 164.79 118.914 164.581 117.784C164.121 115.287 154.566 114.851 143.137 115.295C132.874 115.694 124.942 126.932 118.639 133.215C113.61 138.227 107.87 139.955 106.296 139.968C96.2596 140.054 109.202 112.268 110.54 102.541C111.013 99.1066 112.336 95.5861 113.675 93.1175C114.214 92.1228 115.901 92.8686 116.809 95.0951C121.767 107.251 118.619 117.945 115.498 125.587C112.251 133.535 104.735 135.004 97.5713 145.08C89.4695 156.476 78.7437 170.87 74.4588 176.715C73.5643 177.936 73.3355 179.399 73.7727 180.529C74.21 181.659 75.5418 182.547 77.3378 182.783C81.3249 183.305 86.3043 181.229 91.2282 178.996C99.3371 175.318 100.215 164.681 102.468 157.699C103.363 154.349 104.264 150.3 105.603 146.493C106.497 144.905 107.829 144.017 109.202 143.103" stroke="#99D5DC" stroke-width="2" stroke-linecap="round"/>
</svg>
